<svg xmlns="http://www.w3.org/2000/svg" width="197.716" height="49.362" viewBox="0 0 197.716 49.362"><g transform="translate(-673.284 -250.947)"><path d="M18.221,0H3.284V-26.607H17.627v3.748H7.7v7.533h9.147V-11.6H7.7v7.867H18.221ZM41.531-22.859H31.586v8h9.166v3.729H31.586V0H27.17V-26.607H41.531ZM55.008,0H50.462V-26.607h4.546ZM94.35,0H89.971V-17.219q0-2.115.26-5.177h-.074a17.876,17.876,0,0,1-.724,2.5L81.492,0H78.449l-7.96-19.742a18.6,18.6,0,0,1-.705-2.653H69.71q.148,1.6.148,5.214V0H65.776V-26.607h6.216l7,17.72a26.2,26.2,0,0,1,1.039,3.043h.093q.687-2.1,1.113-3.117l7.125-17.646H94.35Zm29.322-1.113A16.13,16.13,0,0,1,116.2.445a12.227,12.227,0,0,1-9.277-3.655A13.318,13.318,0,0,1,103.43-12.8a13.968,13.968,0,0,1,3.924-10.316,13.425,13.425,0,0,1,9.917-3.934,16.253,16.253,0,0,1,6.4,1.095v4.379a11.423,11.423,0,0,0-5.937-1.6,9.319,9.319,0,0,0-7,2.765,10.156,10.156,0,0,0-2.681,7.385,9.685,9.685,0,0,0,2.5,7,8.717,8.717,0,0,0,6.587,2.607A11.794,11.794,0,0,0,123.673-5.2ZM154.313,0h-4.435V-11.541H137.354V0h-4.416V-26.607h4.416v11.188h12.524V-26.607h4.435Zm15.314,0H165.08V-26.607h4.546Zm30.9,0h-5.752l-9.259-12.172a6.721,6.721,0,0,1-.631-.928h-.074V0h-4.416V-26.607h4.416V-14.1h.074a6.121,6.121,0,0,1,.631-.909l8.925-11.6h5.288L189.282-13.842Z" transform="translate(670 278)" fill="#d63131"/><path d="M.709,6.4V3.666a4.229,4.229,0,0,0,.877.6,6.78,6.78,0,0,0,1.079.453,8.5,8.5,0,0,0,1.14.285,6.078,6.078,0,0,0,1.051.1,4.484,4.484,0,0,0,2.5-.559,1.839,1.839,0,0,0,.822-1.621A1.768,1.768,0,0,0,7.9,1.939a2.872,2.872,0,0,0-.766-.766A8.045,8.045,0,0,0,5.979.508Q5.314.19,4.554-.157q-.816-.436-1.52-.883A6.542,6.542,0,0,1,1.81-2.029,4.139,4.139,0,0,1,.994-3.253a3.986,3.986,0,0,1-.3-1.6,3.689,3.689,0,0,1,.509-1.962A4.3,4.3,0,0,1,2.548-8.187a6.149,6.149,0,0,1,1.895-.8,9,9,0,0,1,2.168-.263,8.752,8.752,0,0,1,3.666.57v2.627a5.855,5.855,0,0,0-3.51-.984,6.288,6.288,0,0,0-1.179.112,3.505,3.505,0,0,0-1.051.369,2.274,2.274,0,0,0-.754.659,1.616,1.616,0,0,0-.291.972A1.839,1.839,0,0,0,3.716-4a2.393,2.393,0,0,0,.654.715,6.68,6.68,0,0,0,1.051.632q.62.307,1.436.665.838.436,1.582.917A7.455,7.455,0,0,1,9.746-.011,4.666,4.666,0,0,1,10.64,1.28a3.791,3.791,0,0,1,.33,1.615,4,4,0,0,1-.492,2.057A3.964,3.964,0,0,1,9.154,6.315a5.9,5.9,0,0,1-1.917.76,10.808,10.808,0,0,1-2.291.235,9.757,9.757,0,0,1-.989-.061q-.587-.061-1.2-.179a11.052,11.052,0,0,1-1.162-.285A3.68,3.68,0,0,1,.709,6.4ZM26.733-6.729h-4.6V7.041h-2.66V-6.729H14.875V-8.987H26.733ZM43.95.559q0,6.751-6.393,6.751-6.125,0-6.125-6.494v-9.8h2.66V.268q0,4.717,3.666,4.717,3.532,0,3.532-4.549V-8.987h2.66Zm6.308,6.483V-8.987h4.627q8.863,0,8.863,7.813a7.7,7.7,0,0,1-2.459,5.963,9.385,9.385,0,0,1-6.595,2.252Zm2.649-13.77V4.795H55.03a5.938,5.938,0,0,0,4.365-1.542,5.858,5.858,0,0,0,1.559-4.359q0-5.622-5.823-5.622ZM71.945,7.041H69.206V-8.987h2.738Zm13.092.268a7.209,7.209,0,0,1-5.549-2.247A8.252,8.252,0,0,1,77.4-.783a8.743,8.743,0,0,1,2.124-6.17,7.461,7.461,0,0,1,5.767-2.3,7.048,7.048,0,0,1,5.438,2.235,8.28,8.28,0,0,1,2.062,5.846,8.77,8.77,0,0,1-2.112,6.2A7.325,7.325,0,0,1,85.037,7.31ZM85.16-6.919a4.459,4.459,0,0,0-3.582,1.643A6.5,6.5,0,0,0,80.2-.95a6.562,6.562,0,0,0,1.341,4.3,4.325,4.325,0,0,0,3.51,1.632,4.531,4.531,0,0,0,3.633-1.554,6.482,6.482,0,0,0,1.33-4.348A6.8,6.8,0,0,0,88.72-5.354,4.364,4.364,0,0,0,85.16-6.919Z" transform="translate(778.207 293)" fill="#464646"/><path d="M1.5,0A1.5,1.5,0,1,1,0,1.5,1.5,1.5,0,0,1,1.5,0Z" transform="translate(862 290.5)" fill="#464646"/></g></svg>